<svg xmlns="http://www.w3.org/2000/svg" width="24" height="36.01716613769531" style="">
<rect id="backgroundrect" width="100%" height="100%" x="0" y="0" fill="none" stroke="none" class="" style=""/>
<g class="currentLayer" style="">
<title>Layer 1</title>
<path fill="#ffffff" stroke="#000000" stroke-opacity="1" stroke-width="1" stroke-dasharray="none" stroke-linejoin="round" stroke-linecap="butt" stroke-dashoffset="" fill-rule="nonzero" opacity="1" marker-start="" marker-mid="" marker-end="" d="M0.9610230475664139,3.736226770090658 C0.9610230475664139,2.7106891487176754 5.8510237237767555,1.8800036754055598 11.888061595641375,1.8800036754055598 C17.92509946750599,1.8800036754055598 22.815100143716336,2.7106891487176754 22.815100143716336,3.736226770090658 C22.815100143716336,4.7617643914636405 17.92509946750599,5.592449864775756 11.888061595641375,5.592449864775756 C5.8510237237767555,5.592449864775756 0.9610230475664139,4.7617643914636405 0.9610230475664139,3.736226770090658 z" id="svg_4" class="" filter="url(#f006)" fill-opacity="1"/>
<path fill="none" d="M-43.08101961016655,12.979592241346836 h24 v37.73390579223633 H-43.08101961016655 V12.979592241346836 z" id="svg_1" class=""/>
<path d="M12 6c2.62 0 4.88 1.86 5.39 4.43l.3 1.5 1.53.11c1.56.1 2.78 1.41 2.78 2.96 0 1.65-1.35 3-3 3H6c-2.21 0-4-1.79-4-4 0-2.05 1.53-3.76 3.56-3.97l1.07-.11.5-.95C8.08 7.14 9.94 6 12 6m0-2C9.11 4 6.6 5.64 5.35 8.04 2.34 8.36 0 10.91 0 14c0 3.31 2.69 6 6 6h13c2.76 0 5-2.24 5-5 0-2.64-2.05-4.78-4.65-4.96C18.67 6.59 15.64 4 12 4z" id="svg_2" class="" stroke-width="1"/>
<path fill="none" fill-opacity="1" stroke="none" stroke-opacity="1" stroke-width="1" stroke-dasharray="none" stroke-linejoin="miter" stroke-linecap="butt" stroke-dashoffset="" fill-rule="nonzero" opacity="1" marker-start="" marker-mid="" marker-end="" d="M5.1330306133558565,19.296147401216956L9.854060810860574,32.600868866912094" id="svg_3"/>
<path fill="none" fill-opacity="1" stroke="none" stroke-opacity="1" stroke-width="1" stroke-dasharray="none" stroke-linejoin="miter" stroke-linecap="butt" stroke-dashoffset="" fill-rule="nonzero" opacity="1" marker-start="" marker-mid="" marker-end="" d="M5.991399740174927,19.725331964626434L9.854060810860574,26.59228497917877" id="svg_6"/>
<path fill="none" fill-opacity="1" stroke="none" stroke-opacity="1" stroke-width="1" stroke-dasharray="none" stroke-linejoin="miter" stroke-linecap="butt" stroke-dashoffset="" fill-rule="nonzero" opacity="1" marker-start="" marker-mid="" marker-end="" d="M5.1330306133558565,19.725331964626434L8.13732255722249,28.309023232816855" id="svg_9"/>
<path fill="none" fill-opacity="1" stroke="none" stroke-opacity="1" stroke-width="1" stroke-dasharray="none" stroke-linejoin="miter" stroke-linecap="butt" stroke-dashoffset="" fill-rule="nonzero" opacity="1" marker-start="" marker-mid="" marker-end="" d="M-24.242460857711535,-5.904868868649544 L-97.20383663733008,16.41272842864555 " id="svg_12" class=""/>
<path fill="none" fill-opacity="1" stroke="none" stroke-opacity="1" stroke-width="1" stroke-dasharray="none" stroke-linejoin="miter" stroke-linecap="butt" stroke-dashoffset="" fill-rule="nonzero" opacity="1" marker-start="" marker-mid="" marker-end="" d="M-61.39057671511989,41.61374469851205L-20.18885862780587,37.75108362782635" id="svg_14"/>
<path fill="none" fill-opacity="1" stroke="none" stroke-opacity="1" stroke-width="1" stroke-dasharray="none" stroke-linejoin="miter" stroke-linecap="butt" stroke-dashoffset="" fill-rule="nonzero" opacity="1" marker-start="" marker-mid="" marker-end="" d="M-4.738214345063113,34.746791683959714L-44.22319417873905,29.596576923045458" id="svg_16"/>
<path fill="none" fill-opacity="1" stroke="none" stroke-opacity="1" stroke-width="1" stroke-dasharray="none" stroke-linejoin="miter" stroke-linecap="butt" stroke-dashoffset="" fill-rule="nonzero" opacity="1" marker-start="" marker-mid="" marker-end="" d="M3.8454769231273076,19.296147401216928L11.14161450108918,31.742499740093056" id="svg_18"/>
<path fill="none" fill-opacity="1" stroke="none" stroke-opacity="1" stroke-width="1" stroke-dasharray="none" stroke-linejoin="miter" stroke-linecap="butt" stroke-dashoffset="" fill-rule="nonzero" opacity="1" marker-start="" marker-mid="" marker-end="" d="M12.858352754727264,33.88842255714067L7.278953430403477,23.587993035312167" id="svg_20"/>
<path fill="none" fill-opacity="1" stroke="none" stroke-opacity="1" stroke-width="1" stroke-dasharray="none" stroke-linejoin="miter" stroke-linecap="butt" stroke-dashoffset="" fill-rule="nonzero" opacity="1" marker-start="" marker-mid="" marker-end="" d="M14.145906444955811,31.742499740093056L4.274661486536843,18.437778274397914" id="svg_26"/>
<path fill="none" fill-opacity="1" stroke="#000000" stroke-opacity="1" stroke-width="1" stroke-dasharray="none" stroke-linejoin="miter" stroke-linecap="butt" stroke-dashoffset="" fill-rule="nonzero" opacity="1" marker-start="" marker-mid="" marker-end="" d="M6.4205843035844055,19.725331964626463L11.999983627908193,35.17597624736922" id="svg_28"/>
<path fill="none" fill-opacity="1" stroke="#000000" stroke-opacity="1" stroke-width="1" stroke-dasharray="none" stroke-linejoin="miter" stroke-linecap="butt" stroke-dashoffset="" fill-rule="nonzero" opacity="1" marker-start="" marker-mid="" marker-end="" d="M11.999983627908193,35.17597624736922L18.008567515641516,19.725331964626463" id="svg_30"/>
<rect fill="#000000" stroke="#000000" stroke-dashoffset="" fill-rule="nonzero" id="svg_10" x="48" y="-11" width="1" height="0" style="color: rgb(0, 0, 0);"/>
</g>
<defs>
<filter id="f006" xmlns:inkscape="http://www.inkscape.org/namespaces/inkscape" inkscape:label="Apparition" x="0" y="0" width="1" height="1" inkscape:menu="Blurs" inkscape:menu-tooltip="Edges are partly feathered out" color-interpolation-filters="sRGB">
    <feMorphology radius="4" in="SourceGraphic" result="result0"/>
    <feGaussianBlur in="result0" stdDeviation="8" result="result91"/>
    <feComposite operator="in" in="SourceGraphic" in2="result91"/>
</filter>
</defs>
</svg>